<mxfile host="Electron" agent="Mozilla/5.0 (Windows NT 10.0; Win64; x64) AppleWebKit/537.36 (KHTML, like Gecko) draw.io/28.2.5 Chrome/138.0.7204.251 Electron/37.6.1 Safari/537.36" version="28.2.5">
  <diagram name="Page-1" id="Z6euC-GC6ZMElodOfMUQ">
    <mxGraphModel dx="1603" dy="963" grid="1" gridSize="10" guides="1" tooltips="1" connect="1" arrows="1" fold="1" page="1" pageScale="1" pageWidth="1100" pageHeight="850" math="0" shadow="0">
      <root>
        <mxCell id="0" />
        <mxCell id="1" parent="0" />
        <mxCell id="1Gf8LM67b4mjZps-O6Bs-1" value="&lt;span style=&quot;font-size: 14px;&quot;&gt;фризерски салон&lt;/span&gt;" style="shape=umlActor;verticalLabelPosition=bottom;verticalAlign=top;html=1;outlineConnect=0;" vertex="1" parent="1">
          <mxGeometry x="310" y="700" width="30" height="60" as="geometry" />
        </mxCell>
        <mxCell id="1Gf8LM67b4mjZps-O6Bs-2" value="&lt;font style=&quot;font-size: 14px;&quot;&gt;налог фризерског салона&lt;/font&gt;" style="shape=folder;fontStyle=1;tabWidth=190;tabHeight=20;tabPosition=left;html=1;boundedLbl=1;labelInHeader=1;container=1;collapsible=0;whiteSpace=wrap;" vertex="1" parent="1">
          <mxGeometry x="580" y="330" width="710" height="350" as="geometry" />
        </mxCell>
        <mxCell id="1Gf8LM67b4mjZps-O6Bs-3" value="" style="html=1;strokeColor=none;resizeWidth=1;resizeHeight=1;fillColor=none;part=1;connectable=0;allowArrows=0;deletable=0;whiteSpace=wrap;" vertex="1" parent="1Gf8LM67b4mjZps-O6Bs-2">
          <mxGeometry width="709.9999999999999" height="319.99999999999994" relative="1" as="geometry">
            <mxPoint y="30" as="offset" />
          </mxGeometry>
        </mxCell>
        <mxCell id="1Gf8LM67b4mjZps-O6Bs-4" value="&lt;font style=&quot;font-size: 14px;&quot;&gt;преглед сопственог профила&lt;/font&gt;" style="ellipse;whiteSpace=wrap;html=1;" vertex="1" parent="1Gf8LM67b4mjZps-O6Bs-2">
          <mxGeometry x="46.58" y="60" width="217.99" height="70" as="geometry" />
        </mxCell>
        <mxCell id="1Gf8LM67b4mjZps-O6Bs-5" value="&lt;font style=&quot;font-size: 14px;&quot;&gt;преглед примљених рецензија&lt;/font&gt;" style="ellipse;whiteSpace=wrap;html=1;" vertex="1" parent="1Gf8LM67b4mjZps-O6Bs-2">
          <mxGeometry x="40.57" y="166.41" width="230.01" height="70" as="geometry" />
        </mxCell>
        <mxCell id="1Gf8LM67b4mjZps-O6Bs-6" value="&lt;font style=&quot;font-size: 14px;&quot;&gt;повезивање са Google налогом (&lt;i&gt;Google Sign-In)&lt;/i&gt;&lt;/font&gt;" style="ellipse;whiteSpace=wrap;html=1;" vertex="1" parent="1Gf8LM67b4mjZps-O6Bs-2">
          <mxGeometry x="311.2328767123287" y="60.0025641025641" width="329.926301369863" height="70" as="geometry" />
        </mxCell>
        <mxCell id="1Gf8LM67b4mjZps-O6Bs-7" value="&lt;span style=&quot;font-size: 14px;&quot;&gt;ажурирање сопственог профила&lt;/span&gt;" style="ellipse;whiteSpace=wrap;html=1;" vertex="1" parent="1Gf8LM67b4mjZps-O6Bs-2">
          <mxGeometry x="342.72" y="170" width="266.95" height="62.82" as="geometry" />
        </mxCell>
        <mxCell id="1Gf8LM67b4mjZps-O6Bs-8" value="&lt;font style=&quot;font-size: 14px;&quot;&gt;одјава&lt;/font&gt;" style="ellipse;whiteSpace=wrap;html=1;" vertex="1" parent="1Gf8LM67b4mjZps-O6Bs-2">
          <mxGeometry x="97.15" y="270" width="116.85" height="50" as="geometry" />
        </mxCell>
        <mxCell id="1Gf8LM67b4mjZps-O6Bs-9" value="&amp;lt;&amp;lt;extend&amp;gt;&amp;gt;" style="html=1;verticalAlign=bottom;labelBackgroundColor=none;endArrow=open;endFill=0;dashed=1;rounded=0;exitX=0.5;exitY=1;exitDx=0;exitDy=0;entryX=0.5;entryY=0;entryDx=0;entryDy=0;" edge="1" parent="1Gf8LM67b4mjZps-O6Bs-2" source="1Gf8LM67b4mjZps-O6Bs-6" target="1Gf8LM67b4mjZps-O6Bs-7">
          <mxGeometry x="0.4999" y="-36" width="160" relative="1" as="geometry">
            <mxPoint x="200" y="190" as="sourcePoint" />
            <mxPoint x="360" y="190" as="targetPoint" />
            <mxPoint as="offset" />
          </mxGeometry>
        </mxCell>
        <mxCell id="1Gf8LM67b4mjZps-O6Bs-42" value="&amp;lt;&amp;lt;extend&amp;gt;&amp;gt;" style="html=1;verticalAlign=bottom;labelBackgroundColor=none;endArrow=open;endFill=0;dashed=1;rounded=0;exitX=0.5;exitY=0;exitDx=0;exitDy=0;entryX=0.5;entryY=1;entryDx=0;entryDy=0;" edge="1" parent="1Gf8LM67b4mjZps-O6Bs-2" source="1Gf8LM67b4mjZps-O6Bs-5" target="1Gf8LM67b4mjZps-O6Bs-4">
          <mxGeometry x="-0.6477" y="36" width="160" relative="1" as="geometry">
            <mxPoint x="100" y="210" as="sourcePoint" />
            <mxPoint x="260" y="210" as="targetPoint" />
            <mxPoint as="offset" />
          </mxGeometry>
        </mxCell>
        <mxCell id="1Gf8LM67b4mjZps-O6Bs-19" value="&lt;font style=&quot;font-size: 14px;&quot;&gt;резервације&lt;/font&gt;" style="shape=folder;fontStyle=1;tabWidth=110;tabHeight=30;tabPosition=left;html=1;boundedLbl=1;labelInHeader=1;container=1;collapsible=0;whiteSpace=wrap;" vertex="1" parent="1">
          <mxGeometry x="580" y="720" width="710" height="350" as="geometry" />
        </mxCell>
        <mxCell id="1Gf8LM67b4mjZps-O6Bs-20" value="" style="html=1;strokeColor=none;resizeWidth=1;resizeHeight=1;fillColor=none;part=1;connectable=0;allowArrows=0;deletable=0;whiteSpace=wrap;" vertex="1" parent="1Gf8LM67b4mjZps-O6Bs-19">
          <mxGeometry width="710" height="320" relative="1" as="geometry">
            <mxPoint y="30" as="offset" />
          </mxGeometry>
        </mxCell>
        <mxCell id="1Gf8LM67b4mjZps-O6Bs-21" value="&lt;font style=&quot;font-size: 14px;&quot;&gt;преглед прихваћених резервација&lt;/font&gt;" style="ellipse;whiteSpace=wrap;html=1;" vertex="1" parent="1Gf8LM67b4mjZps-O6Bs-19">
          <mxGeometry x="40" y="170" width="250" height="70" as="geometry" />
        </mxCell>
        <mxCell id="1Gf8LM67b4mjZps-O6Bs-22" value="&lt;font style=&quot;font-size: 14px;&quot;&gt;преглед прошлих непотврђених резервација&lt;/font&gt;" style="ellipse;whiteSpace=wrap;html=1;" vertex="1" parent="1Gf8LM67b4mjZps-O6Bs-19">
          <mxGeometry x="330" y="60" width="315" height="70" as="geometry" />
        </mxCell>
        <mxCell id="1Gf8LM67b4mjZps-O6Bs-23" value="&lt;font style=&quot;font-size: 14px;&quot;&gt;преглед одбијених резервација&lt;/font&gt;" style="ellipse;whiteSpace=wrap;html=1;" vertex="1" parent="1Gf8LM67b4mjZps-O6Bs-19">
          <mxGeometry x="190" y="260" width="230" height="70" as="geometry" />
        </mxCell>
        <mxCell id="1Gf8LM67b4mjZps-O6Bs-24" value="&lt;font style=&quot;font-size: 14px;&quot;&gt;преглед прошлих потврђених резервација&lt;/font&gt;" style="ellipse;whiteSpace=wrap;html=1;" vertex="1" parent="1Gf8LM67b4mjZps-O6Bs-19">
          <mxGeometry x="337.5" y="170" width="300" height="70" as="geometry" />
        </mxCell>
        <mxCell id="1Gf8LM67b4mjZps-O6Bs-25" value="&lt;font style=&quot;font-size: 14px;&quot;&gt;преглед нових резервација&lt;/font&gt;" style="ellipse;whiteSpace=wrap;html=1;" vertex="1" parent="1Gf8LM67b4mjZps-O6Bs-19">
          <mxGeometry x="65" y="60" width="200" height="70" as="geometry" />
        </mxCell>
        <mxCell id="1Gf8LM67b4mjZps-O6Bs-26" value="" style="endArrow=none;startArrow=none;endFill=0;startFill=0;endSize=8;html=1;verticalAlign=bottom;labelBackgroundColor=none;strokeWidth=3;rounded=0;entryX=0;entryY=0.5;entryDx=0;entryDy=0;" edge="1" parent="1" target="1Gf8LM67b4mjZps-O6Bs-4">
          <mxGeometry width="160" relative="1" as="geometry">
            <mxPoint x="300" y="690" as="sourcePoint" />
            <mxPoint x="540" y="430" as="targetPoint" />
            <Array as="points">
              <mxPoint x="300" y="430" />
            </Array>
          </mxGeometry>
        </mxCell>
        <mxCell id="1Gf8LM67b4mjZps-O6Bs-27" value="" style="endArrow=none;startArrow=none;endFill=0;startFill=0;endSize=8;html=1;verticalAlign=bottom;labelBackgroundColor=none;strokeWidth=3;rounded=0;entryX=0;entryY=0.5;entryDx=0;entryDy=0;" edge="1" parent="1" target="1Gf8LM67b4mjZps-O6Bs-5">
          <mxGeometry width="160" relative="1" as="geometry">
            <mxPoint x="320" y="690" as="sourcePoint" />
            <mxPoint x="520" y="530" as="targetPoint" />
            <Array as="points">
              <mxPoint x="320" y="530" />
            </Array>
          </mxGeometry>
        </mxCell>
        <mxCell id="1Gf8LM67b4mjZps-O6Bs-28" value="" style="endArrow=none;startArrow=none;endFill=0;startFill=0;endSize=8;html=1;verticalAlign=bottom;labelBackgroundColor=none;strokeWidth=3;rounded=0;entryX=0;entryY=0.5;entryDx=0;entryDy=0;" edge="1" parent="1" target="1Gf8LM67b4mjZps-O6Bs-8">
          <mxGeometry width="160" relative="1" as="geometry">
            <mxPoint x="340" y="690" as="sourcePoint" />
            <mxPoint x="470" y="630" as="targetPoint" />
            <Array as="points">
              <mxPoint x="340" y="630" />
            </Array>
          </mxGeometry>
        </mxCell>
        <mxCell id="1Gf8LM67b4mjZps-O6Bs-29" value="" style="endArrow=none;startArrow=none;endFill=0;startFill=0;endSize=8;html=1;verticalAlign=bottom;labelBackgroundColor=none;strokeWidth=3;rounded=0;entryX=0.5;entryY=1;entryDx=0;entryDy=0;" edge="1" parent="1" target="1Gf8LM67b4mjZps-O6Bs-7">
          <mxGeometry width="160" relative="1" as="geometry">
            <mxPoint x="360" y="690" as="sourcePoint" />
            <mxPoint x="450" y="670" as="targetPoint" />
            <Array as="points">
              <mxPoint x="360" y="660" />
              <mxPoint x="1056" y="660" />
            </Array>
          </mxGeometry>
        </mxCell>
        <mxCell id="1Gf8LM67b4mjZps-O6Bs-44" value="" style="endArrow=none;startArrow=none;endFill=0;startFill=0;endSize=8;html=1;verticalAlign=bottom;labelBackgroundColor=none;strokeWidth=3;rounded=0;entryX=0;entryY=0.5;entryDx=0;entryDy=0;" edge="1" parent="1" target="1Gf8LM67b4mjZps-O6Bs-25">
          <mxGeometry width="160" relative="1" as="geometry">
            <mxPoint x="360" y="800" as="sourcePoint" />
            <mxPoint x="710" y="820" as="targetPoint" />
            <Array as="points">
              <mxPoint x="360" y="810" />
            </Array>
          </mxGeometry>
        </mxCell>
        <mxCell id="1Gf8LM67b4mjZps-O6Bs-45" value="" style="endArrow=none;startArrow=none;endFill=0;startFill=0;endSize=8;html=1;verticalAlign=bottom;labelBackgroundColor=none;strokeWidth=3;rounded=0;entryX=0;entryY=0.5;entryDx=0;entryDy=0;" edge="1" parent="1" target="1Gf8LM67b4mjZps-O6Bs-21">
          <mxGeometry width="160" relative="1" as="geometry">
            <mxPoint x="340" y="800" as="sourcePoint" />
            <mxPoint x="640" y="920" as="targetPoint" />
            <Array as="points">
              <mxPoint x="340" y="930" />
            </Array>
          </mxGeometry>
        </mxCell>
        <mxCell id="1Gf8LM67b4mjZps-O6Bs-46" value="" style="endArrow=none;startArrow=none;endFill=0;startFill=0;endSize=8;html=1;verticalAlign=bottom;labelBackgroundColor=none;strokeWidth=3;rounded=0;entryX=0;entryY=0.5;entryDx=0;entryDy=0;" edge="1" parent="1" target="1Gf8LM67b4mjZps-O6Bs-23">
          <mxGeometry width="160" relative="1" as="geometry">
            <mxPoint x="320" y="800" as="sourcePoint" />
            <mxPoint x="560" y="850" as="targetPoint" />
            <Array as="points">
              <mxPoint x="320" y="1010" />
            </Array>
          </mxGeometry>
        </mxCell>
        <mxCell id="1Gf8LM67b4mjZps-O6Bs-47" value="" style="endArrow=none;startArrow=none;endFill=0;startFill=0;endSize=8;html=1;verticalAlign=bottom;labelBackgroundColor=none;strokeWidth=3;rounded=0;entryX=0.5;entryY=1;entryDx=0;entryDy=0;" edge="1" parent="1" target="1Gf8LM67b4mjZps-O6Bs-24">
          <mxGeometry width="160" relative="1" as="geometry">
            <mxPoint x="300" y="800" as="sourcePoint" />
            <mxPoint x="630" y="890" as="targetPoint" />
            <Array as="points">
              <mxPoint x="300" y="1120" />
              <mxPoint x="1070" y="1120" />
            </Array>
          </mxGeometry>
        </mxCell>
        <mxCell id="1Gf8LM67b4mjZps-O6Bs-48" value="" style="endArrow=none;startArrow=none;endFill=0;startFill=0;endSize=8;html=1;verticalAlign=bottom;labelBackgroundColor=none;strokeWidth=3;rounded=0;entryX=1;entryY=0.5;entryDx=0;entryDy=0;" edge="1" parent="1" target="1Gf8LM67b4mjZps-O6Bs-22">
          <mxGeometry width="160" relative="1" as="geometry">
            <mxPoint x="280" y="800" as="sourcePoint" />
            <mxPoint x="1380" y="990" as="targetPoint" />
            <Array as="points">
              <mxPoint x="280" y="1150" />
              <mxPoint x="1320" y="1150" />
              <mxPoint x="1320" y="820" />
            </Array>
          </mxGeometry>
        </mxCell>
      </root>
    </mxGraphModel>
  </diagram>
</mxfile>
